<svg aria-roledescription="er" role="graphics-document document" viewBox="-43.29010581970215 0 831.5984497070312 664" style="max-width: 100%;" xmlns="http://www.w3.org/2000/svg" width="100%" id="graph-div" height="100%" xmlns:xlink="http://www.w3.org/1999/xlink"><style>@import url("https://cdnjs.cloudflare.com/ajax/libs/font-awesome/6.5.2/css/all.min.css");'</style><style>#graph-div{font-family:"trebuchet ms",verdana,arial,sans-serif;font-size:16px;fill:#333;}#graph-div .error-icon{fill:#552222;}#graph-div .error-text{fill:#552222;stroke:#552222;}#graph-div .edge-thickness-normal{stroke-width:2px;}#graph-div .edge-thickness-thick{stroke-width:3.5px;}#graph-div .edge-pattern-solid{stroke-dasharray:0;}#graph-div .edge-pattern-dashed{stroke-dasharray:3;}#graph-div .edge-pattern-dotted{stroke-dasharray:2;}#graph-div .marker{fill:#333333;stroke:#333333;}#graph-div .marker.cross{stroke:#333333;}#graph-div svg{font-family:"trebuchet ms",verdana,arial,sans-serif;font-size:16px;}#graph-div .entityBox{fill:#ECECFF;stroke:#9370DB;}#graph-div .attributeBoxOdd{fill:#ffffff;stroke:#9370DB;}#graph-div .attributeBoxEven{fill:#f2f2f2;stroke:#9370DB;}#graph-div .relationshipLabelBox{fill:hsl(80, 100%, 96.2745098039%);opacity:0.7;background-color:hsl(80, 100%, 96.2745098039%);}#graph-div .relationshipLabelBox rect{opacity:0.5;}#graph-div .relationshipLine{stroke:#333333;}#graph-div .entityTitleText{text-anchor:middle;font-size:18px;fill:#333;}#graph-div #MD_PARENT_START{fill:#f5f5f5!important;stroke:#333333!important;stroke-width:1;}#graph-div #MD_PARENT_END{fill:#f5f5f5!important;stroke:#333333!important;stroke-width:1;}#graph-div :root{--mermaid-font-family:"trebuchet ms",verdana,arial,sans-serif;}</style><g></g><defs><marker orient="auto" markerHeight="240" markerWidth="190" refY="7" refX="0" id="MD_PARENT_START"><path d="M 18,7 L9,13 L1,7 L9,1 Z"></path></marker></defs><defs><marker orient="auto" markerHeight="28" markerWidth="20" refY="7" refX="19" id="MD_PARENT_END"><path d="M 18,7 L9,13 L1,7 L9,1 Z"></path></marker></defs><defs><marker orient="auto" markerHeight="18" markerWidth="18" refY="9" refX="0" id="ONLY_ONE_START"><path d="M9,0 L9,18 M15,0 L15,18" fill="none" stroke="gray"></path></marker></defs><defs><marker orient="auto" markerHeight="18" markerWidth="18" refY="9" refX="18" id="ONLY_ONE_END"><path d="M3,0 L3,18 M9,0 L9,18" fill="none" stroke="gray"></path></marker></defs><defs><marker orient="auto" markerHeight="18" markerWidth="30" refY="9" refX="0" id="ZERO_OR_ONE_START"><circle r="6" cy="9" cx="21" fill="white" stroke="gray"></circle><path d="M9,0 L9,18" fill="none" stroke="gray"></path></marker></defs><defs><marker orient="auto" markerHeight="18" markerWidth="30" refY="9" refX="30" id="ZERO_OR_ONE_END"><circle r="6" cy="9" cx="9" fill="white" stroke="gray"></circle><path d="M21,0 L21,18" fill="none" stroke="gray"></path></marker></defs><defs><marker orient="auto" markerHeight="36" markerWidth="45" refY="18" refX="18" id="ONE_OR_MORE_START"><path d="M0,18 Q 18,0 36,18 Q 18,36 0,18 M42,9 L42,27" fill="none" stroke="gray"></path></marker></defs><defs><marker orient="auto" markerHeight="36" markerWidth="45" refY="18" refX="27" id="ONE_OR_MORE_END"><path d="M3,9 L3,27 M9,18 Q27,0 45,18 Q27,36 9,18" fill="none" stroke="gray"></path></marker></defs><defs><marker orient="auto" markerHeight="36" markerWidth="57" refY="18" refX="18" id="ZERO_OR_MORE_START"><circle r="6" cy="18" cx="48" fill="white" stroke="gray"></circle><path d="M0,18 Q18,0 36,18 Q18,36 0,18" fill="none" stroke="gray"></path></marker></defs><defs><marker orient="auto" markerHeight="36" markerWidth="57" refY="18" refX="39" id="ZERO_OR_MORE_END"><circle r="6" cy="18" cx="9" fill="white" stroke="gray"></circle><path d="M21,18 Q39,0 57,18 Q39,36 21,18" fill="none" stroke="gray"></path></marker></defs><path style="stroke: gray; fill: none;" marker-start="url(#ONLY_ONE_START)" marker-end="url(#ZERO_OR_MORE_END)" d="M395.595,331.602L362.261,345.668C328.928,359.734,262.261,387.867,216.329,415.877C170.396,443.888,145.198,471.776,132.599,485.719L120,499.663" class="er relationshipLine"></path><path style="stroke: gray; fill: none;" marker-start="url(#ONLY_ONE_START)" marker-end="url(#ZERO_OR_MORE_END)" d="M486.093,366L491.942,374.333C497.792,382.667,509.49,399.333,503.382,420.901C497.273,442.469,473.357,468.938,461.399,482.173L449.44,495.407" class="er relationshipLine"></path><path style="stroke: gray; fill: none;" marker-start="url(#ONLY_ONE_START)" marker-end="url(#ZERO_OR_MORE_END)" d="M395.595,325.451L345.595,340.542C295.595,355.634,195.595,385.817,144.06,409.242C92.526,432.667,89.457,449.333,87.922,457.667L86.388,466" class="er relationshipLine"></path><path style="stroke: gray; fill: none;" marker-start="url(#ONLY_ONE_START)" marker-end="url(#ZERO_OR_MORE_END)" d="M433.262,366L431.25,374.333C429.238,382.667,425.214,399.333,420.992,419.667C416.77,440,412.351,464,410.141,476L407.932,488" class="er relationshipLine"></path><path style="stroke: gray; fill: none;" marker-start="url(#ONLY_ONE_START)" marker-end="url(#ZERO_OR_MORE_END)" d="M497.974,335.584L524.79,348.987C551.607,362.389,605.241,389.195,632.058,414.597C658.874,440,658.874,464,658.874,476L658.874,488" class="er relationshipLine"></path><path style="stroke: gray; fill: none;" marker-start="url(#ONLY_ONE_START)" marker-end="url(#ZERO_OR_MORE_END)" d="M281.76,118.862L309.264,133.052C336.768,147.242,391.776,175.621,419.28,198.144C446.784,220.667,446.784,237.333,446.784,245.667L446.784,254" class="er relationshipLine"></path><path style="stroke: gray; fill: none;" marker-start="url(#ONLY_ONE_START)" marker-end="url(#ZERO_OR_MORE_END)" d="M158.24,119.2L131.133,133.333C104.025,147.467,49.81,175.733,22.702,207.533C-4.405,239.333,-4.405,274.667,-4.405,310C-4.405,345.333,-4.405,380.667,0.055,406.667C4.516,432.667,13.438,449.333,17.898,457.667L22.359,466" class="er relationshipLine"></path><path style="stroke: gray; fill: none;" marker-start="url(#ONLY_ONE_START)" marker-end="url(#ZERO_OR_MORE_END)" d="M263.289,154L268.674,162.333C274.058,170.667,284.826,187.333,290.21,213.333C295.595,239.333,295.595,274.667,295.595,310C295.595,345.333,295.595,380.667,304.228,410.333C312.861,440,330.127,464,338.76,476L347.393,488" class="er relationshipLine"></path><g transform="translate(395.59471893310547,254 )" id="entity-USUARIS-98e83b8e-9478-5369-a650-aacd02ba0946"><rect height="112" width="102.37887573242188" y="0" x="0" class="er entityBox"></rect><text style="dominant-baseline: middle; text-anchor: middle; font-size: 12px;" transform="translate(51.18943786621094,12)" y="0" x="0" id="text-entity-USUARIS-98e83b8e-9478-5369-a650-aacd02ba0946" class="er entityLabel">USUARIS</text><rect height="22" width="36.61909484863281" y="24" x="0" class="er attributeBoxOdd"></rect><text style="dominant-baseline: middle; font-size: 10.2px;" transform="translate(5,35)" y="0" x="0" id="text-entity-USUARIS-98e83b8e-9478-5369-a650-aacd02ba0946-attr-1-type" class="er entityLabel">int</text><rect height="22" width="65.75978088378906" y="24" x="36.61909484863281" class="er attributeBoxOdd"></rect><text style="dominant-baseline: middle; font-size: 10.2px;" transform="translate(41.61909484863281,35)" y="0" x="0" id="text-entity-USUARIS-98e83b8e-9478-5369-a650-aacd02ba0946-attr-1-name" class="er entityLabel">id</text><rect height="22" width="36.61909484863281" y="46" x="0" class="er attributeBoxEven"></rect><text style="dominant-baseline: middle; font-size: 10.2px;" transform="translate(5,57)" y="0" x="0" id="text-entity-USUARIS-98e83b8e-9478-5369-a650-aacd02ba0946-attr-2-type" class="er entityLabel">string</text><rect height="22" width="65.75978088378906" y="46" x="36.61909484863281" class="er attributeBoxEven"></rect><text style="dominant-baseline: middle; font-size: 10.2px;" transform="translate(41.61909484863281,57)" y="0" x="0" id="text-entity-USUARIS-98e83b8e-9478-5369-a650-aacd02ba0946-attr-2-name" class="er entityLabel">nom</text><rect height="22" width="36.61909484863281" y="68" x="0" class="er attributeBoxOdd"></rect><text style="dominant-baseline: middle; font-size: 10.2px;" transform="translate(5,79)" y="0" x="0" id="text-entity-USUARIS-98e83b8e-9478-5369-a650-aacd02ba0946-attr-3-type" class="er entityLabel">string</text><rect height="22" width="65.75978088378906" y="68" x="36.61909484863281" class="er attributeBoxOdd"></rect><text style="dominant-baseline: middle; font-size: 10.2px;" transform="translate(41.61909484863281,79)" y="0" x="0" id="text-entity-USUARIS-98e83b8e-9478-5369-a650-aacd02ba0946-attr-3-name" class="er entityLabel">email</text><rect height="22" width="36.61909484863281" y="90" x="0" class="er attributeBoxEven"></rect><text style="dominant-baseline: middle; font-size: 10.2px;" transform="translate(5,101)" y="0" x="0" id="text-entity-USUARIS-98e83b8e-9478-5369-a650-aacd02ba0946-attr-4-type" class="er entityLabel">string</text><rect height="22" width="65.75978088378906" y="90" x="36.61909484863281" class="er attributeBoxEven"></rect><text style="dominant-baseline: middle; font-size: 10.2px;" transform="translate(41.61909484863281,101)" y="0" x="0" id="text-entity-USUARIS-98e83b8e-9478-5369-a650-aacd02ba0946-attr-4-name" class="er entityLabel">contrasenya</text></g><g transform="translate(20,466 )" id="entity-DIETAS-c93d99ab-e83d-5285-aa5a-ac9b3b2380cc"><rect height="178" width="100" y="0" x="0" class="er entityBox"></rect><text style="dominant-baseline: middle; text-anchor: middle; font-size: 12px;" transform="translate(50,12)" y="0" x="0" id="text-entity-DIETAS-c93d99ab-e83d-5285-aa5a-ac9b3b2380cc" class="er entityLabel">DIETAS</text><rect height="22" width="37.35905456542969" y="24" x="0" class="er attributeBoxOdd"></rect><text style="dominant-baseline: middle; font-size: 10.2px;" transform="translate(5,35)" y="0" x="0" id="text-entity-DIETAS-c93d99ab-e83d-5285-aa5a-ac9b3b2380cc-attr-1-type" class="er entityLabel">int</text><rect height="22" width="62.64094543457031" y="24" x="37.35905456542969" class="er attributeBoxOdd"></rect><text style="dominant-baseline: middle; font-size: 10.2px;" transform="translate(42.35905456542969,35)" y="0" x="0" id="text-entity-DIETAS-c93d99ab-e83d-5285-aa5a-ac9b3b2380cc-attr-1-name" class="er entityLabel">id</text><rect height="22" width="37.35905456542969" y="46" x="0" class="er attributeBoxEven"></rect><text style="dominant-baseline: middle; font-size: 10.2px;" transform="translate(5,57)" y="0" x="0" id="text-entity-DIETAS-c93d99ab-e83d-5285-aa5a-ac9b3b2380cc-attr-2-type" class="er entityLabel">int</text><rect height="22" width="62.64094543457031" y="46" x="37.35905456542969" class="er attributeBoxEven"></rect><text style="dominant-baseline: middle; font-size: 10.2px;" transform="translate(42.35905456542969,57)" y="0" x="0" id="text-entity-DIETAS-c93d99ab-e83d-5285-aa5a-ac9b3b2380cc-attr-2-name" class="er entityLabel">id_usuari</text><rect height="22" width="37.35905456542969" y="68" x="0" class="er attributeBoxOdd"></rect><text style="dominant-baseline: middle; font-size: 10.2px;" transform="translate(5,79)" y="0" x="0" id="text-entity-DIETAS-c93d99ab-e83d-5285-aa5a-ac9b3b2380cc-attr-3-type" class="er entityLabel">string</text><rect height="22" width="62.64094543457031" y="68" x="37.35905456542969" class="er attributeBoxOdd"></rect><text style="dominant-baseline: middle; font-size: 10.2px;" transform="translate(42.35905456542969,79)" y="0" x="0" id="text-entity-DIETAS-c93d99ab-e83d-5285-aa5a-ac9b3b2380cc-attr-3-name" class="er entityLabel">nom_plat</text><rect height="22" width="37.35905456542969" y="90" x="0" class="er attributeBoxEven"></rect><text style="dominant-baseline: middle; font-size: 10.2px;" transform="translate(5,101)" y="0" x="0" id="text-entity-DIETAS-c93d99ab-e83d-5285-aa5a-ac9b3b2380cc-attr-4-type" class="er entityLabel">string</text><rect height="22" width="62.64094543457031" y="90" x="37.35905456542969" class="er attributeBoxEven"></rect><text style="dominant-baseline: middle; font-size: 10.2px;" transform="translate(42.35905456542969,101)" y="0" x="0" id="text-entity-DIETAS-c93d99ab-e83d-5285-aa5a-ac9b3b2380cc-attr-4-name" class="er entityLabel">apat</text><rect height="22" width="37.35905456542969" y="112" x="0" class="er attributeBoxOdd"></rect><text style="dominant-baseline: middle; font-size: 10.2px;" transform="translate(5,123)" y="0" x="0" id="text-entity-DIETAS-c93d99ab-e83d-5285-aa5a-ac9b3b2380cc-attr-5-type" class="er entityLabel">string</text><rect height="22" width="62.64094543457031" y="112" x="37.35905456542969" class="er attributeBoxOdd"></rect><text style="dominant-baseline: middle; font-size: 10.2px;" transform="translate(42.35905456542969,123)" y="0" x="0" id="text-entity-DIETAS-c93d99ab-e83d-5285-aa5a-ac9b3b2380cc-attr-5-name" class="er entityLabel">ingredients</text><rect height="22" width="37.35905456542969" y="134" x="0" class="er attributeBoxEven"></rect><text style="dominant-baseline: middle; font-size: 10.2px;" transform="translate(5,145)" y="0" x="0" id="text-entity-DIETAS-c93d99ab-e83d-5285-aa5a-ac9b3b2380cc-attr-6-type" class="er entityLabel">date</text><rect height="22" width="62.64094543457031" y="134" x="37.35905456542969" class="er attributeBoxEven"></rect><text style="dominant-baseline: middle; font-size: 10.2px;" transform="translate(42.35905456542969,145)" y="0" x="0" id="text-entity-DIETAS-c93d99ab-e83d-5285-aa5a-ac9b3b2380cc-attr-6-name" class="er entityLabel">data-inici</text><rect height="22" width="37.35905456542969" y="156" x="0" class="er attributeBoxOdd"></rect><text style="dominant-baseline: middle; font-size: 10.2px;" transform="translate(5,167)" y="0" x="0" id="text-entity-DIETAS-c93d99ab-e83d-5285-aa5a-ac9b3b2380cc-attr-7-type" class="er entityLabel">date</text><rect height="22" width="62.64094543457031" y="156" x="37.35905456542969" class="er attributeBoxOdd"></rect><text style="dominant-baseline: middle; font-size: 10.2px;" transform="translate(42.35905456542969,167)" y="0" x="0" id="text-entity-DIETAS-c93d99ab-e83d-5285-aa5a-ac9b3b2380cc-attr-7-name" class="er entityLabel">data-fi</text></g><g transform="translate(341.74908447265625,488 )" id="entity-RUTINAS-d5bc3626-439d-59e2-97ee-24158564e2d7"><rect height="134" width="107.69126892089844" y="0" x="0" class="er entityBox"></rect><text style="dominant-baseline: middle; text-anchor: middle; font-size: 12px;" transform="translate(53.84563446044922,12)" y="0" x="0" id="text-entity-RUTINAS-d5bc3626-439d-59e2-97ee-24158564e2d7" class="er entityLabel">RUTINAS</text><rect height="22" width="36.61909484863281" y="24" x="0" class="er attributeBoxOdd"></rect><text style="dominant-baseline: middle; font-size: 10.2px;" transform="translate(5,35)" y="0" x="0" id="text-entity-RUTINAS-d5bc3626-439d-59e2-97ee-24158564e2d7-attr-1-type" class="er entityLabel">int</text><rect height="22" width="71.07217407226562" y="24" x="36.61909484863281" class="er attributeBoxOdd"></rect><text style="dominant-baseline: middle; font-size: 10.2px;" transform="translate(41.61909484863281,35)" y="0" x="0" id="text-entity-RUTINAS-d5bc3626-439d-59e2-97ee-24158564e2d7-attr-1-name" class="er entityLabel">id</text><rect height="22" width="36.61909484863281" y="46" x="0" class="er attributeBoxEven"></rect><text style="dominant-baseline: middle; font-size: 10.2px;" transform="translate(5,57)" y="0" x="0" id="text-entity-RUTINAS-d5bc3626-439d-59e2-97ee-24158564e2d7-attr-2-type" class="er entityLabel">int</text><rect height="22" width="71.07217407226562" y="46" x="36.61909484863281" class="er attributeBoxEven"></rect><text style="dominant-baseline: middle; font-size: 10.2px;" transform="translate(41.61909484863281,57)" y="0" x="0" id="text-entity-RUTINAS-d5bc3626-439d-59e2-97ee-24158564e2d7-attr-2-name" class="er entityLabel">id_usuari</text><rect height="22" width="36.61909484863281" y="68" x="0" class="er attributeBoxOdd"></rect><text style="dominant-baseline: middle; font-size: 10.2px;" transform="translate(5,79)" y="0" x="0" id="text-entity-RUTINAS-d5bc3626-439d-59e2-97ee-24158564e2d7-attr-3-type" class="er entityLabel">string</text><rect height="22" width="71.07217407226562" y="68" x="36.61909484863281" class="er attributeBoxOdd"></rect><text style="dominant-baseline: middle; font-size: 10.2px;" transform="translate(41.61909484863281,79)" y="0" x="0" id="text-entity-RUTINAS-d5bc3626-439d-59e2-97ee-24158564e2d7-attr-3-name" class="er entityLabel">nom_exercici</text><rect height="22" width="36.61909484863281" y="90" x="0" class="er attributeBoxEven"></rect><text style="dominant-baseline: middle; font-size: 10.2px;" transform="translate(5,101)" y="0" x="0" id="text-entity-RUTINAS-d5bc3626-439d-59e2-97ee-24158564e2d7-attr-4-type" class="er entityLabel">int</text><rect height="22" width="71.07217407226562" y="90" x="36.61909484863281" class="er attributeBoxEven"></rect><text style="dominant-baseline: middle; font-size: 10.2px;" transform="translate(41.61909484863281,101)" y="0" x="0" id="text-entity-RUTINAS-d5bc3626-439d-59e2-97ee-24158564e2d7-attr-4-name" class="er entityLabel">series</text><rect height="22" width="36.61909484863281" y="112" x="0" class="er attributeBoxOdd"></rect><text style="dominant-baseline: middle; font-size: 10.2px;" transform="translate(5,123)" y="0" x="0" id="text-entity-RUTINAS-d5bc3626-439d-59e2-97ee-24158564e2d7-attr-5-type" class="er entityLabel">date</text><rect height="22" width="71.07217407226562" y="112" x="36.61909484863281" class="er attributeBoxOdd"></rect><text style="dominant-baseline: middle; font-size: 10.2px;" transform="translate(41.61909484863281,123)" y="0" x="0" id="text-entity-RUTINAS-d5bc3626-439d-59e2-97ee-24158564e2d7-attr-5-name" class="er entityLabel">data</text></g><g transform="translate(549.4403533935547,488 )" id="entity-MISSATGES-783c86ba-8ec4-53b5-b325-0ea3ab7d08e8"><rect height="134" width="218.86795043945312" y="0" x="0" class="er entityBox"></rect><text style="dominant-baseline: middle; text-anchor: middle; font-size: 12px;" transform="translate(109.43397521972656,12)" y="0" x="0" id="text-entity-MISSATGES-783c86ba-8ec4-53b5-b325-0ea3ab7d08e8" class="er entityLabel">MISSATGES</text><rect height="22" width="97.62583923339844" y="24" x="0" class="er attributeBoxOdd"></rect><text style="dominant-baseline: middle; font-size: 10.2px;" transform="translate(5,35)" y="0" x="0" id="text-entity-MISSATGES-783c86ba-8ec4-53b5-b325-0ea3ab7d08e8-attr-1-type" class="er entityLabel">int</text><rect height="22" width="121.24211120605469" y="24" x="97.62583923339844" class="er attributeBoxOdd"></rect><text style="dominant-baseline: middle; font-size: 10.2px;" transform="translate(102.62583923339844,35)" y="0" x="0" id="text-entity-MISSATGES-783c86ba-8ec4-53b5-b325-0ea3ab7d08e8-attr-1-name" class="er entityLabel">id</text><rect height="22" width="97.62583923339844" y="46" x="0" class="er attributeBoxEven"></rect><text style="dominant-baseline: middle; font-size: 10.2px;" transform="translate(5,57)" y="0" x="0" id="text-entity-MISSATGES-783c86ba-8ec4-53b5-b325-0ea3ab7d08e8-attr-2-type" class="er entityLabel">unsignedBigInteger</text><rect height="22" width="121.24211120605469" y="46" x="97.62583923339844" class="er attributeBoxEven"></rect><text style="dominant-baseline: middle; font-size: 10.2px;" transform="translate(102.62583923339844,57)" y="0" x="0" id="text-entity-MISSATGES-783c86ba-8ec4-53b5-b325-0ea3ab7d08e8-attr-2-name" class="er entityLabel">usuario_envia_mensaje</text><rect height="22" width="97.62583923339844" y="68" x="0" class="er attributeBoxOdd"></rect><text style="dominant-baseline: middle; font-size: 10.2px;" transform="translate(5,79)" y="0" x="0" id="text-entity-MISSATGES-783c86ba-8ec4-53b5-b325-0ea3ab7d08e8-attr-3-type" class="er entityLabel">unsignedBigInteger</text><rect height="22" width="121.24211120605469" y="68" x="97.62583923339844" class="er attributeBoxOdd"></rect><text style="dominant-baseline: middle; font-size: 10.2px;" transform="translate(102.62583923339844,79)" y="0" x="0" id="text-entity-MISSATGES-783c86ba-8ec4-53b5-b325-0ea3ab7d08e8-attr-3-name" class="er entityLabel">usuario_recibe_mensaje</text><rect height="22" width="97.62583923339844" y="90" x="0" class="er attributeBoxEven"></rect><text style="dominant-baseline: middle; font-size: 10.2px;" transform="translate(5,101)" y="0" x="0" id="text-entity-MISSATGES-783c86ba-8ec4-53b5-b325-0ea3ab7d08e8-attr-4-type" class="er entityLabel">String</text><rect height="22" width="121.24211120605469" y="90" x="97.62583923339844" class="er attributeBoxEven"></rect><text style="dominant-baseline: middle; font-size: 10.2px;" transform="translate(102.62583923339844,101)" y="0" x="0" id="text-entity-MISSATGES-783c86ba-8ec4-53b5-b325-0ea3ab7d08e8-attr-4-name" class="er entityLabel">mensaje</text><rect height="22" width="97.62583923339844" y="112" x="0" class="er attributeBoxOdd"></rect><text style="dominant-baseline: middle; font-size: 10.2px;" transform="translate(5,123)" y="0" x="0" id="text-entity-MISSATGES-783c86ba-8ec4-53b5-b325-0ea3ab7d08e8-attr-5-type" class="er entityLabel">String</text><rect height="22" width="121.24211120605469" y="112" x="97.62583923339844" class="er attributeBoxOdd"></rect><text style="dominant-baseline: middle; font-size: 10.2px;" transform="translate(102.62583923339844,123)" y="0" x="0" id="text-entity-MISSATGES-783c86ba-8ec4-53b5-b325-0ea3ab7d08e8-attr-5-name" class="er entityLabel">imagen</text></g><g transform="translate(158.240234375,20 )" id="entity-ADMINISTRADORS-74c8aab7-6890-5c8c-a950-f6653e711557"><rect height="134" width="123.51953125" y="0" x="0" class="er entityBox"></rect><text style="dominant-baseline: middle; text-anchor: middle; font-size: 12px;" transform="translate(61.759765625,12)" y="0" x="0" id="text-entity-ADMINISTRADORS-74c8aab7-6890-5c8c-a950-f6653e711557" class="er entityLabel">ADMINISTRADORS</text><rect height="22" width="47.01759338378906" y="24" x="0" class="er attributeBoxOdd"></rect><text style="dominant-baseline: middle; font-size: 10.2px;" transform="translate(5,35)" y="0" x="0" id="text-entity-ADMINISTRADORS-74c8aab7-6890-5c8c-a950-f6653e711557-attr-1-type" class="er entityLabel">int</text><rect height="22" width="76.50193786621094" y="24" x="47.01759338378906" class="er attributeBoxOdd"></rect><text style="dominant-baseline: middle; font-size: 10.2px;" transform="translate(52.01759338378906,35)" y="0" x="0" id="text-entity-ADMINISTRADORS-74c8aab7-6890-5c8c-a950-f6653e711557-attr-1-name" class="er entityLabel">id</text><rect height="22" width="47.01759338378906" y="46" x="0" class="er attributeBoxEven"></rect><text style="dominant-baseline: middle; font-size: 10.2px;" transform="translate(5,57)" y="0" x="0" id="text-entity-ADMINISTRADORS-74c8aab7-6890-5c8c-a950-f6653e711557-attr-2-type" class="er entityLabel">string</text><rect height="22" width="76.50193786621094" y="46" x="47.01759338378906" class="er attributeBoxEven"></rect><text style="dominant-baseline: middle; font-size: 10.2px;" transform="translate(52.01759338378906,57)" y="0" x="0" id="text-entity-ADMINISTRADORS-74c8aab7-6890-5c8c-a950-f6653e711557-attr-2-name" class="er entityLabel">nom</text><rect height="22" width="47.01759338378906" y="68" x="0" class="er attributeBoxOdd"></rect><text style="dominant-baseline: middle; font-size: 10.2px;" transform="translate(5,79)" y="0" x="0" id="text-entity-ADMINISTRADORS-74c8aab7-6890-5c8c-a950-f6653e711557-attr-3-type" class="er entityLabel">string</text><rect height="22" width="76.50193786621094" y="68" x="47.01759338378906" class="er attributeBoxOdd"></rect><text style="dominant-baseline: middle; font-size: 10.2px;" transform="translate(52.01759338378906,79)" y="0" x="0" id="text-entity-ADMINISTRADORS-74c8aab7-6890-5c8c-a950-f6653e711557-attr-3-name" class="er entityLabel">email</text><rect height="22" width="47.01759338378906" y="90" x="0" class="er attributeBoxEven"></rect><text style="dominant-baseline: middle; font-size: 10.2px;" transform="translate(5,101)" y="0" x="0" id="text-entity-ADMINISTRADORS-74c8aab7-6890-5c8c-a950-f6653e711557-attr-4-type" class="er entityLabel">string</text><rect height="22" width="76.50193786621094" y="90" x="47.01759338378906" class="er attributeBoxEven"></rect><text style="dominant-baseline: middle; font-size: 10.2px;" transform="translate(52.01759338378906,101)" y="0" x="0" id="text-entity-ADMINISTRADORS-74c8aab7-6890-5c8c-a950-f6653e711557-attr-4-name" class="er entityLabel">contrasenya</text><rect height="22" width="47.01759338378906" y="112" x="0" class="er attributeBoxOdd"></rect><text style="dominant-baseline: middle; font-size: 10.2px;" transform="translate(5,123)" y="0" x="0" id="text-entity-ADMINISTRADORS-74c8aab7-6890-5c8c-a950-f6653e711557-attr-5-type" class="er entityLabel">string</text><rect height="22" width="76.50193786621094" y="112" x="47.01759338378906" class="er attributeBoxOdd"></rect><text style="dominant-baseline: middle; font-size: 10.2px;" transform="translate(52.01759338378906,123)" y="0" x="0" id="text-entity-ADMINISTRADORS-74c8aab7-6890-5c8c-a950-f6653e711557-attr-5-name" class="er entityLabel">tipus_admin</text></g><rect height="14" width="28.28125" y="391.70465087890625" x="232.68609619140625" class="er relationshipLabelBox"></rect><text style="text-anchor: middle; dominant-baseline: middle; font-size: 12px;" y="398.70465087890625" x="246.82672119140625" id="rel221" class="er relationshipLabel">tiene</text><rect height="14" width="28.28125" y="428.8912353515625" x="482.81036376953125" class="er relationshipLabelBox"></rect><text style="text-anchor: middle; dominant-baseline: middle; font-size: 12px;" y="435.8912353515625" x="496.95098876953125" id="rel222" class="er relationshipLabel">tiene</text><rect height="14" width="45.6015625" y="370.498291015625" x="205.34996032714844" class="er relationshipLabelBox"></rect><text style="text-anchor: middle; dominant-baseline: middle; font-size: 12px;" y="377.498291015625" x="228.15074157714844" id="rel223" class="er relationshipLabel">gestiona</text><rect height="14" width="45.6015625" y="419.77801513671875" x="396.73638916015625" class="er relationshipLabelBox"></rect><text style="text-anchor: middle; dominant-baseline: middle; font-size: 12px;" y="426.77801513671875" x="419.53717041015625" id="rel224" class="er relationshipLabel">gestiona</text><rect height="14" width="29.400390625" y="384.8959655761719" x="587.6435546875" class="er relationshipLabelBox"></rect><text style="text-anchor: middle; dominant-baseline: middle; font-size: 12px;" y="391.8959655761719" x="602.34375" id="rel225" class="er relationshipLabel">envia</text><rect height="14" width="45.6015625" y="164.93356323242188" x="357.74066162109375" class="er relationshipLabelBox"></rect><text style="text-anchor: middle; dominant-baseline: middle; font-size: 12px;" y="171.93356323242188" x="380.54144287109375" id="rel226" class="er relationshipLabel">gestiona</text><rect height="13.999984741210938" width="45.6015625" y="247.89315032958984" x="-23.290106654167175" class="er relationshipLabelBox"></rect><text style="text-anchor: middle; dominant-baseline: middle; font-size: 12px;" y="254.8931427001953" x="-0.4893254041671753" id="rel227" class="er relationshipLabel">gestiona</text><rect height="14" width="45.6015625" y="316.89697265625" x="272.8143005371094" class="er relationshipLabelBox"></rect><text style="text-anchor: middle; dominant-baseline: middle; font-size: 12px;" y="323.89697265625" x="295.6150817871094" id="rel228" class="er relationshipLabel">gestiona</text></svg>